<?xml version="1.0" standalone="no"?>
<!DOCTYPE svg PUBLIC "-//W3C//DTD SVG 1.1//EN" "http://www.w3.org/Graphics/SVG/1.1/DTD/svg11.dtd">
<svg xmlns="http://www.w3.org/2000/svg">
<metadata>Copyright (C) 2019 by original authors @ fontello.com</metadata>
<defs>
<font id="fontello" horiz-adv-x="1000" >
<font-face font-family="fontello" font-weight="400" font-stretch="normal" units-per-em="1000" ascent="850" descent="-150" />
<missing-glyph horiz-adv-x="1000" />
<glyph glyph-name="copyright" unicode="&#xe800;" d="M500 850c-276 0-500-224-500-500s224-500 500-500 500 224 500 500-224 500-500 500z m0-935c-240 0-435 195-435 435s195 435 435 435 435-195 435-435-195-435-435-435z m204 354c-15 9-35 5-45-10-31-49-85-79-143-79-94 0-170 76-170 170s76 170 170 170c56 0 109-28 141-75 10-15 30-19 45-9 15 10 19 30 9 45-44 65-117 104-195 104-130 0-235-105-235-235s105-235 235-235c80 0 154 41 198 109 10 15 5 35-10 45z" horiz-adv-x="1000" />

<glyph glyph-name="calendar" unicode="&#xe801;" d="M902 514c6 0 11 2 14 6 4 3 6 9 6 14s-2 10-6 13c-3 4-8 6-14 6s-10-2-13-6-6-8-6-13 2-11 6-14c3-4 8-6 13-6z m-518-531h0c-11 0-20-8-20-19s9-20 20-20h0c11 0 19 9 19 20s-8 19-19 19z m616 83v647c0 33-26 59-59 59h-66v12c0 36-30 66-67 66s-66-30-66-66v-12h-176v12c0 36-30 66-66 66s-67-30-67-66v-12h-175v12c0 36-30 66-67 66s-66-30-66-66v-12h-66c-33 0-59-26-59-59v-804c0-33 26-59 59-59h725c6 0 11 2 14 6 0 0 0 0 0 0l196 196 0 0c4 3 6 8 6 14z m-219 718c0 15 12 27 27 27s27-12 27-27v-96c0-15-12-27-27-27s-27 12-27 27v96z m-309 0c0 15 13 27 28 27s27-12 27-27v-96c0-15-12-27-27-27s-28 12-28 27v96z m-308 0c0 15 12 27 27 27s28-12 28-27v-96c0-15-12-27-28-27s-27 12-27 27v96z m-125-875v35h267c10 0 19 9 19 20s-9 19-19 19h-267v531h785c11 0 20 9 20 20s-9 19-20 19h-785v160c0 11 9 20 20 20h66v-45c0-37 30-66 66-66s67 29 67 66v45h175v-45c0-37 30-66 67-66s66 29 66 66v45h176v-45c0-37 30-66 66-66s67 29 67 66v45h66c11 0 20-9 20-20v-628h-138c-32 0-58-26-58-58v-138h-706c-11 0-20 9-20 20z m765 8v110c0 10 9 19 19 19h110l-129-129z m-421 248v68 67c0 21-17 38-38 38h-85c-10 0-19-8-19-19s9-20 19-20h84v-47h-84c-10 0-19-8-19-19s9-20 19-20h84v-47h-84c-10 0-19-8-19-19s9-20 19-20h85c21 0 38 17 38 38z m170 134c10 0 19 9 19 20s-9 19-19 19h-85c-21 0-38-17-38-38v-67-68c0-21 17-38 38-38h66c21 0 38 17 38 38v49c0 21-17 38-38 38h-29-36v47h84z m-48-86h28v-47h-64v47h36z m218 39h-33-32v47h84c10 0 19 9 19 20s-9 19-19 19h-85c-21 0-38-17-38-38v-49c0-21 17-38 38-38h33 32v-47h-84c-10 0-19-8-19-19s9-20 19-20h85c21 0 38 17 38 38v49c0 21-17 38-38 38z" horiz-adv-x="1000" />

<glyph glyph-name="deal" unicode="&#xe802;" d="M988 129l-94 34c-8 3-18-1-21-10l-5-15-108 39c-3 1-6 2-9 1l-224-40c-21-3-38-16-48-35l-103 38c-16 6-35 5-50-2-21-10-35-29-38-51-4-31 15-62 45-72l340-124c1 0 3-1 5-1 2 0 4 1 6 1l94 32 10-4-5-15c-3-9 1-18 10-21l93-34c2-1 4-1 6-1 7 0 13 4 15 11l91 248c3 9-2 18-10 21z m-215-172l-95-32-333 122c-16 5-26 20-24 36 1 10 7 19 16 24 8 5 18 6 28 3l107-39c0-3 0-6 1-9 6-36 40-60 76-54l186 33-5 32-186-32c-18-3-35 8-39 26 0 4 0 8 0 12 1 0 1 1 1 1 0 2 0 3 1 5 4 11 14 19 25 21l220 39 104-38-56-156-16 6c-3 1-7 1-11 0z m109-71l-63 23 80 218 62-23z m0 0m-496 697c5-19 15-37 28-52 0-1 0-3 0-4v-90c0-28 22-50 49-50v-165c0-6 4-12 10-15l33-16c4-3 10-3 14 0l33 16c6 3 10 9 10 15v165c27 0 49 22 49 50v90c0 1 0 3 0 4 11 12 19 26 25 42 24-4 49 7 62 28 15 26 11 60-11 81l-134 134c-22 22-51 34-82 34h-174c-2 0-4 0-6-1l-113-49h-13v34c0 9-7 16-17 16h-132c-9 0-16-7-16-16v-265c0-9 7-16 16-16h132c10 0 17 7 17 16v33h2c12-40 65-66 114-66 40-1 78 17 104 47z m-253 3h-99v231h99z m397-354l-17-8-17 8v155h34z m49 205c0-9-7-17-16-17h-100c-9 0-16 8-16 17v67c11-6 23-11 36-14 5-14 20-22 34-20 15 2 27 13 29 28 2 15-6 29-20 35-13 6-30 2-39-10-9 3-18 7-26 12 16 9 34 15 52 18 24-4 46-13 66-26z m12 121c-23 15-50 25-78 28-28-3-55-13-78-28-10 13-17 28-20 44h81c25 0 47 13 58 35l47-47c1-1 3-3 5-4-3-10-8-20-15-28z m-29 118c-2 13-7 26-17 36 38-13 64-47 67-86z m-198-57c0-25-41-50-82-50s-83 25-83 50c0 9-7 16-17 16h-16v132h16c3 0 5 1 7 2l112 48h171c22 0 43-9 58-24l135-135c11-10 13-26 6-39-6-9-15-14-26-14 0 0 0 0-1 0 1 5 1 9 1 14 0 73-59 132-132 132-22 0-44-6-63-17h-135v-33h181c19 0 34-15 34-33s-15-33-34-33h-115c-9 0-17-7-17-16z m0 0" horiz-adv-x="1000" />

<glyph glyph-name="list" unicode="&#xe803;" d="M322 681h631c26 0 47 21 47 47s-21 48-47 48h-631c-26 0-47-21-47-48s21-47 47-47z m631-284h-631c-26 0-47-21-47-47 0-26 21-47 47-47h631c26 0 47 21 47 47 0 26-21 47-47 47z m0-378h-631c-26 0-47-21-47-47 0-27 21-48 47-48h631c26 0 47 21 47 48 0 26-21 47-47 47z m-897 676v-118c0-13 11-23 25-23 13 0 24 10 24 23v177c0 13-10 22-23 22-12 0-18-7-19-10-1 0-1 0-1 0l-20-29c-4-5-8-12-8-18 0-13 10-23 22-24z m-32-456h93c12 0 22 11 22 24 0 13-10 23-22 23h-67v1c0 7 16 18 29 28 26 18 58 41 58 80 0 38-29 66-68 66-36 0-64-25-64-59 0-19 12-26 23-26 16 0 25 11 25 22 0 7 2 15 16 15 19 0 19-16 19-18 0-15-19-29-38-43-23-17-50-36-50-65v-25c0-14 13-23 24-23z m110-155c0 39-23 62-63 62-53 0-67-38-67-58 0-23 18-25 25-25 14 0 24 9 24 24 0 5 2 12 17 12 11 0 16-2 16-18 0-16-4-17-17-17-12 0-22-10-22-23 0-14 10-23 23-23 17 0 20-8 20-19v-5c0-19-7-23-21-23-19 0-21 10-21 13 0 11-7 23-24 23-15 0-24-9-24-25 0-28 24-58 69-58 44 0 70 26 70 70v5c0 18-6 33-17 44 8 10 12 25 12 41z" horiz-adv-x="1000" />

<glyph glyph-name="paint" unicode="&#xe804;" d="M261 201c-14 11-32 18-50 18-25 0-48-11-64-31-13-16-19-37-17-59 2-21 13-40 30-54 14-11 32-17 51-17 24 0 47 11 63 30 13 17 19 38 17 59-2 21-13 41-30 54z m-16-90c-8-10-21-16-34-16-11 0-20 3-28 9-9 7-15 18-16 29-2 12 2 23 9 32 8 11 21 17 35 17 10 0 19-4 27-10 9-7 15-18 16-29 2-12-2-23-9-32z m341 279c12 0 24 3 35 8 19 9 34 26 41 46 7 20 6 42-4 62-13 27-42 45-73 45-12 0-24-3-35-8-19-9-34-26-41-46-7-20-6-42 4-61 13-28 42-46 73-46z m-42 95c4 11 12 20 22 25 6 3 13 4 19 4 17 0 33-9 40-25 5-10 6-22 2-33-4-11-12-20-22-25-6-2-13-4-19-4-17 0-33 10-40 25-5 10-6 22-2 33z m-159 36c6-2 12-2 18-2 38 0 70 25 79 62 5 21 1 43-11 61-11 18-29 31-50 36-6 1-12 2-18 2-38 0-71-26-79-63-5-21-1-42 10-61 12-18 30-31 51-35z m-25 88c4 20 22 34 43 34 3 0 6-1 10-2 11-2 21-9 27-19 6-10 8-21 6-33-5-19-23-33-43-33-4 0-7 0-10 1-12 2-22 9-28 19-6 10-8 21-5 33z m-122-134c17 13 28 32 30 54 2 21-4 42-17 59-16 19-39 30-63 30-19 0-37-6-51-17-17-14-28-33-30-54-2-22 4-43 17-60 16-19 39-30 64-30 18 0 36 6 50 18z m-85 35c-7 10-11 21-9 32 1 12 7 22 16 30 8 6 17 9 28 9 13 0 26-6 34-16 7-9 11-21 9-32-1-12-7-22-16-30-8-6-17-9-27-9-14 0-27 6-35 16z m840 145c-3 3-9 7-18 7-10 0-38 0-208-144-4-3-7-6-11-9-30 79-83 150-152 201-79 58-173 89-271 89 0 0 0 0 0 0-67 0-148-23-212-61-78-45-121-107-121-172 0-80 45-113 81-139 29-22 52-39 52-77 0-37-23-55-52-76-36-27-81-60-81-139 0-66 43-127 121-173 64-38 145-61 212-61 0 0 0 0 0 0 121 0 235 46 320 131 84 84 131 195 133 313 28 33 56 65 81 96 44 52 77 95 100 128 29 43 42 70 26 86z m-366-597c-78-77-183-120-294-120 0 0 0 0 0 0-119 0-296 83-296 197 0 60 32 84 66 109 31 23 67 50 67 106 0 56-36 83-67 106-34 25-66 49-66 110 0 70 64 118 103 141 57 33 133 55 193 55 0 0 0 0 0 0 90 0 177-28 249-82 67-50 118-119 145-197-81-70-167-150-232-215-107-14-122-86-132-138-9-45-15-66-50-69-8-1-15-7-17-16-1-8 4-16 12-20 2-1 55-22 116-22 0 0 0 0 0 0 43 0 80 10 110 31 36 25 61 65 74 119 42 43 90 94 138 147-11-91-52-176-119-242z m-56 99c-20-78-69-117-147-117 0 0 0 0 0 0-20 0-40 3-56 6 19 20 26 50 31 77 10 49 20 97 98 108l74-74z m255 291c-74-87-162-185-235-259l-11 11-50 50c66 66 151 144 230 213l0 0c9 8 18 16 27 24 92 78 140 112 165 127-15-25-49-73-126-166z" horiz-adv-x="1000" />

<glyph glyph-name="placeholder" unicode="&#xe805;" d="M506 415c63 0 114 52 114 115s-51 114-114 114-115-51-115-114 52-115 115-115z m0 197c45 0 82-37 82-82s-37-82-82-82-82 37-82 82 37 82 82 82z m315-376h-117l50 72c94 125 80 331-29 441-60 59-138 91-222 91-84 0-163-32-222-91-109-110-123-316-29-441l50-72h-123l-179-377h1000l-179 377z m-543 91c-85 114-73 300 26 399 53 53 124 82 199 82s145-29 199-82c98-99 111-286 25-399l-224-324-161 233h0l-64 91z m-78-124h125l178-258 178 258h119l148-311h-896l148 311z" horiz-adv-x="1000" />

<glyph glyph-name="plus-s" unicode="&#xe806;" d="M980 467c-13 13-29 19-48 19h-296v296c0 19-6 35-19 48-14 13-30 20-49 20h-136c-19 0-35-7-48-20-14-13-20-29-20-48v-296h-296c-19 0-35-6-48-19s-20-30-20-49v-136c0-19 7-35 20-48 13-14 29-20 48-20h296v-296c0-19 6-35 20-48 13-13 29-20 48-20h136c19 0 35 7 49 20 13 13 19 29 19 48v296h296c19 0 35 6 48 20 13 13 20 29 20 48v136c0 19-7 35-20 49z" horiz-adv-x="1000" />

<glyph glyph-name="positive" unicode="&#xe807;" d="M975 421c-10 15-26 26-44 30 12 23 11 51-4 74-10 16-27 27-44 30 3 6 5 13 7 20 4 19 0 38-11 54-10 16-26 26-44 31 11 22 11 50-4 73-22 33-67 42-100 20l-72-47c-38 19-79 33-122 41-13 20-28 39-46 56l-30 29c-21 21-56 24-81 7-30-19-38-60-18-90 0-1 1-2 2-3-98-20-186-72-252-148-72-82-111-188-111-297 0-21 1-42 4-62 22-159 128-295 276-357 55-22 113-34 173-34 95 0 186 29 263 84 76 54 132 129 164 215 3 8-2 17-10 20-8 3-17-1-20-9-29-81-81-150-152-200-72-52-156-79-245-79-46 0-90 7-133 22l127 84c0 0 0 0 0 0 0 0 0 0 0 0l105 69h0c10 7 16 16 18 27 3 12 0 23-6 32l-1 2 20 14c15 10 32 13 50 11 25-4 50 1 71 15l170 113c-1-15-3-30-6-44-1-9 4-17 13-18 1-1 2-1 3-1 7 0 13 6 15 13 4 23 7 47 7 71l48 32c16 10 27 27 31 46 4 18 0 38-11 54z m-346 265l-48-32-9 25c-4 11-9 21-14 31 24-6 48-14 71-24z m-494-108c64 73 150 122 244 139 15-37 19-78 10-117l-38-164c-6 6-14 11-23 13-11 2-22 0-32-7l-107-71c0 0 0 0 0 0 0 0 0 0 0 0l-156-103c0 11-1 22-1 33 0 102 37 200 103 277z m406-490c-1-3-3-6-5-8h0l-93-61-171 256c-5 7-15 9-22 5-7-5-9-15-4-22l171-256-132-88c-131 58-225 179-247 320l155 103 18-27c3-4 8-7 13-7 3 0 6 1 8 3 8 5 9 14 5 21l-18 27 94 62c3 2 6 3 9 2 3-1 6-2 7-5l210-317c2-2 2-5 2-8z m414 285c-2-11-8-20-17-26l-55-37c0 0 0 0 0 0l-195-129c-15-10-32-13-49-11-25 4-51-1-72-15l-21-14-171 260 44 192c11 49 5 102-16 147-1 0-1 1-1 1-4 9-9 17-14 25-11 16-6 37 9 47 13 9 31 7 43-4l29-28c33-32 58-70 73-112l17-44c0 0 0 0 0 0 0 0 0 0 0-1 0 0 0 0 0 0 1-1 1-2 1-2 5-7 15-9 22-5l166 110c19 13 44 8 57-11s7-45-12-57l-14-10s0 0 0 0l-32-21c0 0 0 0 0 0 0 0-1 0-1 0-6-5-8-15-4-22 5-7 15-9 22-4l32 21c9 6 20 9 31 6 11-2 20-8 26-17 6-9 8-20 6-31-2-11-8-20-17-26l-47-31c-7-5-9-14-4-22 3-4 8-7 13-7 3 0 6 1 8 3l7 5 25 16c19 13 45 8 57-11 13-19 8-45-11-57l-24-16c0 0 0 0 0 0l-23-15c-7-5-9-15-4-22 3-4 8-7 13-7 3 0 6 1 8 3l8 5s0 0 0 0l25 16c9 6 20 8 30 6 11-2 20-8 26-17 7-10 9-21 6-31z m0 0" horiz-adv-x="1000" />

<glyph glyph-name="shout" unicode="&#xe808;" d="M268 248c9 5 12 17 7 27-6 9-18 12-27 7-9-6-13-17-7-27 5-9 17-12 27-7z m0 0m-80-135l98-170c21-37 69-51 107-29 37 22 50 69 28 107l-58 101 50 30c10 5 13 17 7 26l-25 44c3 1 23 5 374 74 44 2 70 50 48 88l-65 112 41 63c4 6 5 14 1 20l-39 68c-4 6-11 10-18 10l-75-5-72 125c-11 18-30 29-50 29-1 0-1 0-1 0-20 0-39-10-50-27l-255-325-166-95c-65-38-88-122-50-187 35-60 108-84 170-59z m199-112c11-18 5-42-14-53-19-11-43-4-53 14l-98 170 68 39c113-196 96-166 97-170z m-44 155l-19 34 33 20 20-34z m384 461l27-47-24-36-47 80z m-205 141c5 9 14 9 17 9 3 0 12-1 17-9l227-394c7-13-2-29-17-29-2 0-3-1-10-2l-241 416c5 7 6 7 7 9z m-33-42l226-391-341-67-103 180z m-437-525c-8 15-13 32-13 49 0 35 19 67 49 85l152 88 98-170-152-87c-47-27-107-11-134 35z m0 0m155 45c-5 9-17 12-27 7l-33-20c-10-5-22-2-27 7-6 10-17 13-27 8s-12-18-7-27c16-28 52-38 80-22l34 20c9 5 12 17 7 27z m0 0m764 529l-109-61c-9-5-13-17-7-27 5-9 17-12 26-7l109 60c9 6 13 18 8 27-6 9-18 13-27 8z m0 0m-11-203l-76 21c-10 2-21-4-24-14-3-11 4-21 14-24l76-20c10-3 21 3 23 13 3 11-3 22-13 24z m0 0m-190 274l-20-76c-3-10 3-21 14-24 10-3 21 4 23 14l21 75c2 11-4 22-14 24-11 3-21-3-24-13z m0 0" horiz-adv-x="1000" />

<glyph glyph-name="like" unicode="&#xe809;" d="M917 231c14 15 23 36 23 59 0 48-40 87-88 87h-171c17 52 24 120 24 149v29c0 65-52 117-117 117h-29c-14 0-26-9-29-22l-16-64c-22-89-93-188-167-206-12 33-44 56-81 56h-176c-16 0-29-13-29-29v-528c0-16 13-29 29-29h176c35 0 65 20 79 50l101-34c33-10 67-16 102-16h245c48 0 88 39 88 88 0 11-2 22-6 32 37 10 65 45 65 85 0 23-9 43-23 59 14 15 23 36 23 58s-9 43-23 59z m-622-293c0-16-13-29-29-29h-147v468h147c16 0 29-13 29-29v-410z m498 264h59c16 0 29-14 29-30 0-16-13-29-29-29h-59c-16 0-29-13-29-29 0-16 13-30 29-30h59c16 0 29-13 29-29 0-16-13-29-29-29h-59c-16 0-29-13-29-30 0-16 13-29 29-29 16 0 29-13 29-29 0-16-13-29-29-29h-245c-29 0-57 4-84 13l-110 37v363c46 8 91 37 131 85 40 47 72 108 86 165l11 42h6c32 0 59-27 59-59v-29c0-39-13-115-29-149h-59c-17 0-30-13-30-29 0-16 13-29 30-29h293c16 0 29-13 29-29 0-17-13-30-29-30h-59c-16 0-29-13-29-29 0-16 13-29 29-29z m-176 648c-16 0-29-13-29-29v-61c0-16 13-29 29-29s30 13 30 29v61c0 16-14 29-30 29z m-124-129l-41 41c-12 12-30 12-42 0-11-11-11-30 0-41l42-42c11-11 30-11 41 0 11 12 11 30 0 42z m331 41c-11 12-30 12-41 0l-41-41c-12-12-12-30 0-42 11-11 30-11 41 0l41 42c12 11 12 30 0 41z" horiz-adv-x="1000" />

<glyph glyph-name="car" unicode="&#xe80a;" d="M269 86c41 0 74 34 74 75s-33 74-74 74-75-33-75-74 33-75 75-75z m0 117c23 0 42-19 42-42s-19-43-42-43-43 19-43 43 19 42 43 42z m463 32c-41 0-75-33-75-74s34-75 75-75 74 34 74 75-33 74-74 74z m0-117c-24 0-43 19-43 43s19 42 43 42 42-19 42-42-19-43-42-43z m-439 485h50c9 0 16 7 16 16s-7 16-16 16h-50c-23 0-58-15-73-31l-128-136c-4-5-6-12-3-17 3-6 8-10 15-10h617c6 0 11 3 14 7 3 5 3 11 1 16l-66 141c-7 15-31 30-48 30h-215c-9 0-16-7-16-16l0-146h-250l102 109c9 9 36 21 50 21z m130 0h199c5 0 17-8 19-12l55-118h-273l0 130z m577-301c0 56-44 117-97 135 0 0-75 25-75 25-13 4-29 19-35 31l-65 139c-18 37-64 67-106 67h-329c-40 0-92-23-120-52l-147-156c-14-16-26-45-26-66v-200c0-44 36-80 80-80h30c8-81 76-144 159-144s150 63 158 144h97c9 0 16 7 16 16s-7 16-16 16h-97c-8 80-76 143-158 143s-151-63-159-143h-30c-27 0-48 21-48 48v200c0 13 8 34 18 44l147 157c21 22 65 41 96 41h329c30 0 65-22 77-49l66-139c9-20 32-40 53-47l60-21c-1-6-1-12-1-18 0-54 40-98 91-106v-62c0-27-18-48-40-48h-38c-8 80-76 143-158 143-88 0-160-71-160-159s72-160 160-160c82 0 150 63 158 144h38c40 0 72 36 72 80v77z m-731-14c70 0 127-57 127-127s-57-128-127-128-128 57-128 128 57 127 128 127z m463-255c-71 0-128 57-128 128s57 127 128 127 127-57 127-127-57-128-127-128z m177 360c0 2 0 4 0 6 28-16 51-47 57-79-33 8-57 38-57 73z" horiz-adv-x="1000" />

<glyph glyph-name="newspaper" unicode="&#xe80b;" d="M990 646h-99v71c0 6-4 11-10 11h-871c-5 0-10-5-10-11v-678c0-37 30-67 67-67h868c36 0 65 29 65 65v599c0 5-5 10-10 10z m-10-609c0-24-20-44-45-44s-44 20-44 44v29c0 5-4 10-10 10s-10-5-10-10v-29c0-17 6-32 17-44h-821c-26 0-46 21-46 46v668h850v-546c0-5 4-10 10-10s10 5 10 10v464h89v-588z m-562 555h-326c-6 0-10-5-10-11v-245c0-5 4-10 10-10h326c6 0 11 5 11 10v245c0 6-5 11-11 11z m-10-245h-306v224h306v-224z m55 234c0 6 4 11 10 11h326c6 0 11-5 11-11s-5-10-11-10h-326c-6 0-10 5-10 10z m0-81c0 5 4 10 10 10h326c6 0 11-5 11-10s-5-11-11-11h-326c-6 0-10 5-10 11z m0-82c0 6 4 10 10 10h326c6 0 11-4 11-10s-5-10-11-10h-326c-6 0-10 4-10 10z m10-92c-6 0-10 5-10 10s4 11 10 11h326c6 0 11-5 11-11s-5-10-11-10h-326z m-44-71c0-6-5-11-11-11h-326c-6 0-10 5-10 11s4 10 10 10h326c6 0 11-5 11-10z m0-82c0-5-5-10-11-10h-326c-6 0-10 5-10 10s4 10 10 10h326c6 0 11-4 11-10z m0-81c0-6-5-11-11-11h-326c-6 0-10 5-10 11s4 10 10 10h326c6 0 11-5 11-10z m384 163c0-6-4-11-10-11h-326c-6 0-11 5-11 11s5 10 11 10h326c6 0 10-5 10-10z m0-82c0-5-4-10-10-10h-326c-6 0-11 5-11 10s5 10 11 10h326c6 0 10-4 10-10z m0-81c0-6-4-11-10-11h-326c-6 0-11 5-11 11s5 10 11 10h326c6 0 10-5 10-10z" horiz-adv-x="1000" />

<glyph glyph-name="plus" unicode="&#xe80c;" d="M909 441h-318v318c0 50-41 91-91 91-50 0-91-41-91-91v-318h-318c-50 0-91-41-91-91 0-25 10-48 27-65 16-16 39-27 64-27h318v-317c0-25 10-48 27-64 16-17 39-27 64-27 50 0 91 41 91 91v318h318c50 0 91 41 91 91 0 50-41 91-91 91z" horiz-adv-x="1000" />

<glyph glyph-name="add" unicode="&#xe80d;" d="M500-150c-75 0-136 61-136 135v229h-229c-74 0-135 61-135 136s61 136 135 136h229v229c0 74 61 135 136 135s136-61 136-135v-229h229c74 0 135-61 135-136s-61-136-135-136h-229v-229c0-74-61-135-136-135z m-365 591c-48 0-89-42-89-91s41-91 89-91h274v-274c0-49 42-90 91-90s91 41 91 90v274h274c49 0 90 42 90 91s-41 91-90 91h-274v274c0 49-42 90-91 90s-91-41-91-90v-274h-274z" horiz-adv-x="1000" />

<glyph glyph-name="loan" unicode="&#xe80e;" d="M226 44c-36 0-65-29-65-65s29-65 65-65 64 29 64 65-29 65-64 65z m0-97c-18 0-32 14-32 32 0 18 14 32 32 32 18 0 32-14 32-32 0-18-14-32-32-32z m548 97c-35 0-64-29-64-65s29-65 64-65 65 29 65 65-29 65-65 65z m0-97c-18 0-32 14-32 32 0 18 14 32 32 32 18 0 33-14 33-32 0-18-15-32-33-32z m-209 710c-18 0-33 14-33 32s15 32 33 32c17 0 32-14 32-32h32c0 30-21 55-48 62v35h-33v-35c-27-7-48-32-48-62 0-36 29-65 65-65 17 0 32-14 32-32s-15-32-32-32c-18 0-33 14-33 32h-32c0-30 21-55 48-62v-35h33v35c27 7 48 32 48 62 0 36-29 65-64 65z m368-411l-38 6c-47 96-130 170-230 205 7 4 14 8 21 13l-19 26c-30-22-65-33-102-33-98 0-178 80-178 177s80 178 178 178 177-80 177-178c0-37-11-72-33-102l26-19c26 36 39 78 39 121 0 116-94 210-209 210s-210-94-210-210c0-70 35-133 89-171-106-24-199-90-257-184l-94-18c-37-6-66-30-82-62h-2l-3-12c0-1 0-1 0-2-4-11-6-23-6-35v-14-50-161h106c20-48 66-81 120-81s100 33 119 81h310c19-48 65-81 119-81s101 33 120 81h106v235c0 40-28 73-67 80z m-901-104c0 11 1 21 3 31h13c9 0 17-8 17-16v-17c0-9-8-16-17-16h-16v18z m65-163c0-5 0-11 1-16h-66v64h74c-6-14-9-31-9-48z m129-97c-54 0-97 44-97 97s43 97 97 97 97-44 97-97-44-97-97-97z m548 0c-53 0-97 44-97 97s44 97 97 97 97-44 97-97-43-97-97-97z m194 81h-66c1 5 1 11 1 16 0 17-3 34-9 48h74v-64z m0 97h-93c-24 29-60 48-101 48-40 0-77-19-100-48h-77v-33h58c-6-14-10-31-10-48 0-5 1-11 1-16h-292c0 5 1 11 1 16 0 17-4 34-10 48h220v33h-239c-23 29-59 48-100 48-41 0-77-19-101-48h-93v32h16c27 0 49 22 49 48v17c0 26-22 48-48 48 12 16 29 27 50 31l96 17 11 0 5 8c59 102 163 170 280 183 23-8 48-13 74-13 17 0 34 2 51 6 111-25 206-102 253-206l5-9 9-1 44-7c24-4 41-24 41-48v-106z m-164 217c-62 86-162 138-268 138-112 0-214-56-275-150l-3-4v-72h549v83l-3 5z m-449-56h-65v30c1 1 1 2 2 2h47c9 0 16-7 16-16v-16z m226 0h-194v16c0 27-22 49-48 49h-22c56 61 135 96 219 96 15 0 30-1 45-3v-158z m193 0h-161v151c64-17 121-56 161-110v-41z" horiz-adv-x="1000" />

<glyph glyph-name="document" unicode="&#xe80f;" d="M119-98a38 38 0 1 1-37 39 38 38 0 0 1 37-39z m0 49a11 11 0 1 0-10-10 10 10 0 0 0 10 10z m533 405h-216a14 14 0 0 1 0-27h216a14 14 0 0 1 0 27z m-93-68h-123a14 14 0 0 1 0-28h123a14 14 0 0 1 0 28z m252 107a155 155 0 0 1-22-2v262a14 14 0 0 1-4 10l-169 168a14 14 0 0 1-9 3h-250a55 55 0 0 1-56-55v-265l-189-150c0 0 0-1-1-1a76 76 0 0 1-21-54v-289h-20c-18 0-33-16-33-34v-92a33 33 0 0 1 33-32h300a32 32 0 0 1 32 32v92c0 18-14 34-32 34h-9v19c37 6 65 38 65 75v64h246a152 152 0 1 1 139 215z m-190 395l121-122h-93c-16 0-28 13-28 29z m-252-796a6 6 0 0 0 6-5v-92a6 6 0 0 0-6-6h-299a6 6 0 0 0-5 6v92a6 6 0 0 0 5 5z m29 122c0-27-22-49-50-49a14 14 0 0 1-14-14v-31h-217v289a49 49 0 0 0 13 34l171 136v-110l-119-94a14 14 0 0 1 17-22l142 113 3-3a34 34 0 0 0 0-47l-67-67a14 14 0 0 1-4-9l-1-15q0 0 0 0a76 76 0 0 1 7-33 72 72 0 0 0-5-70 14 14 0 0 1-2-8v-31a14 14 0 1 1 27 0v27a98 98 0 0 1 5 94 49 49 0 0 0-5 20l1 9 1 1a56 56 0 0 1 56-56h41z m265 91h-306c-16 0-29 14-29 30v27l35 34a61 61 0 0 1 0 86l-11 12a14 14 0 0 1-19 1l-5-5v389a28 28 0 0 0 29 28h237v-112c0-31 24-56 55-56h113v-255a153 153 0 0 1-103-144 160 160 0 0 1 4-35z m148-89a125 125 0 1 0 125 125 125 125 0 0 0-125-125z m-104 394c0 22-14 39-33 44l-27 51c-10 18-25 38-51 38h-141c-20 0-39-14-51-39l-28-50c-19-4-33-22-33-44a13 13 0 0 1 0-2l9-72a30 30 0 0 1 17-26v-18c0-12 11-21 22-21h24c12 0 23 9 23 21v15h175v-15a21 21 0 0 1 21-21h24a21 21 0 0 1 22 21v18a30 30 0 0 1 17 26l10 72a14 14 0 0 1 0 2z m-279 82c0 0 0 0 0 0 5 9 14 24 27 24h141c9 0 17-7 27-24l20-37h-9a46 46 0 0 1-89 0h-138z m176-37h-29a19 19 0 0 0 29 0z m-194-156h-13v8h13z m242 0h-11v8h11z m18 40a20 20 0 0 1 0-3 3 3 0 0 0-2-2h-287a3 3 0 0 0-2 2 16 16 0 0 1 0 2l-9 73c0 8 5 16 13 17 0 0 1 0 1 0h281c0 0 0 0 0 0 9 0 15-9 15-17z m-98 42h-94a14 14 0 1 1 0-27h94a14 14 0 0 1 0 27z m-160 28a34 34 0 1 1 34-34 34 34 0 0 1-34 34z m0-41a7 7 0 1 0 7 7 7 7 0 0 0-7-7z m226 41a34 34 0 1 1 34-34 34 34 0 0 1-34 34z m0-41a7 7 0 1 0 7 7 7 7 0 0 0-7-7z m173-173a20 20 0 0 0 20-20 14 14 0 0 1 14-13 14 14 0 0 1 13 13 48 48 0 0 1-34 46v6a14 14 0 0 1-27 0v-6a47 47 0 0 1 14-93 20 20 0 0 0 0-40c0 0 0 0 0 0s0 0 0 0a20 20 0 0 0-20 20 14 14 0 0 1-14 13 14 14 0 0 1-14-13 47 47 0 0 1 34-46v-8a14 14 0 0 1 27 0v8a47 47 0 0 1-13 93 20 20 0 0 0 0 40z" horiz-adv-x="1000" />

<glyph glyph-name="employee" unicode="&#xe810;" d="M985 26c-8 0-14-7-14-15v-98c0-1-1-2-3-2h-55v214c0 8-7 15-15 15s-15-7-15-15v-214h-107l29 32c4 5 6 12 6 19 0 0 0 0-1 0l-32 194 6 9 1-1c6-4 13-6 19-4 7 2 12 6 15 12v0l33 67 77-30c3-1 42-19 42-66v-63c0-8 6-15 14-15 8 0 15 7 15 15v63c0 68-58 92-60 93 0 0-1 1-1 1l-129 50v26c20 17 34 40 38 67 11 1 20 5 28 12 11 9 17 23 17 38 0 12-4 23-11 32v39c0 78-63 141-140 141-35 0-67-13-92-34 0 11-4 22-11 31v39c0 77-63 140-140 140-77 0-140-63-140-140v-40c-7-9-11-19-12-30-15 14-34 24-55 29-8 2-16-2-18-10s3-16 11-18c48-13 82-57 82-108v-21c0 0-2 0-3 0 0 4-1 7-3 10-4 5-11 12-32 35-8 9-20 10-30 4-37-24-82-37-124-34-14 1-22-5-26-15 0 0-4-1-4-1v22c0 49 33 93 79 107 8 2 12 10 10 18-2 8-11 12-18 10-29-9-54-26-72-50-18-25-28-54-28-85v-40c-7-9-11-20-11-31 0-25 18-47 44-50 5-26 19-51 41-68v-25l-129-50c0 0 0-1 0-1-3-1-61-25-61-93v-230c0-17 14-31 32-31h451c6 0 12 2 17 5 5-3 11-5 17-5h451c18 0 32 14 32 31v98c0 8-7 15-15 15z m-837 384c-9 3-14 11-14 20 0 9 6 16 14 19v-39z m677-161l-29-57c0 0-32 22-32 23 14 17 7 9 36 44l25-10z m-82-14l-38 47v14c12-4 25-6 38-6 0 0 0 0 0 0h0c13 0 26 2 37 7v-15l-37-47z m17-53l-6-8h-23l-6 8 18 12 17-12z m-260 230l-38 47v14c12-5 26-7 38-7 0 0 0 0 0 0h0c13 0 26 3 38 7v-15l-38-46z m17-54l-5-8h-24l-5 8 17 12 17-12z m-132 200c2-1 5-1 7-2 4-26 18-51 41-68v-25l-30-11c-2 3-4 7-7 10v39c0 20-4 39-11 57z m193 15c0-43-35-77-78-77-48 0-80 37-80 77v69c46-2 94 12 133 36 14-14 22-22 25-26 0-36 0-50 0-79z m28-17c2 1 5 1 7 2-7-17-12-36-12-57v-40c-2-3-4-6-6-9l-28 11v27c20 16 35 40 39 66z m-163-120l36-45-25-17c0 0 0 0 0 0l-8-6-28 58 25 10z m91-29l23 29 25-10-28-58-8 6c0 0 0 0 0 0l-25 17 13 16z m7-66l2-1c5-4 12-5 19-3 6 1 11 6 14 12v0l25 49c9-10 21-17 34-18 4-28 19-52 41-68v-25l-125-49-16 94 6 9z m145-82l35-44c-15-11-31-23-32-23l-29 57 26 10z m135 138c0-42-34-78-78-78-50 0-80 39-80 78v68c45-1 94 12 133 37 13-14 21-23 25-27 0-36 0-50 0-78z m43 33c0-9-6-17-14-20v40c9-3 14-11 14-20z m-233 71c0 62 49 111 111 111 61 0 111-49 111-111v-21c-1 0-3 0-3 0 0 4-1 7-4 10-4 5-10 12-32 35-7 8-20 10-30 4-36-24-81-37-125-34-12 1-21-5-24-15-1 0-4-1-4-1v22z m2-52v-39c-8 3-14 11-14 20 0 9 6 16 14 19z m-12 158c0-7-2-12-7-16-2-2-4-3-7-4v40c9-4 14-12 14-20z m-122 182c61 0 111-50 111-111v-22c-1 0-3 1-3 1 0 4-1 7-4 10-4 6-11 13-32 35-7 8-20 10-29 4-38-25-85-37-126-34-11 0-20-6-24-16 0 0-4 0-4 0v22h0c0 61 50 111 111 111z m-108-163v-39c-9 3-14 11-14 20 0 8 6 15 14 19z m-27-176c9-3 14-10 14-19 1-9-5-18-14-21v40z m-1-70c14 2 27 9 35 20l26-51c0 0 0 0 0 0 3-6 8-11 15-12 6-2 13-1 18 3l2 1 6-9-16-94-125 49v26h0c21 17 35 41 39 67z m-106-145l-38 47v14c13-4 26-6 39-6 0 0 0 0 0 0 13 0 26 2 37 7v-15l-38-47z m18-53l-6-8h-23l-6 8 17 12 18-12z m39 77l26-10-29-57-8 5c0 0 0 0 0 0l-24 18 35 44z m-137 138v68c47-1 95 12 134 37 13-14 21-23 24-27 0-36 0-50 0-78 0-43-35-78-77-78-48 0-81 37-81 78z m23-138l36-44-24-18c0 0 0 0 0 0l-8-5-29 57 25 10z m-83-348v214c0 8-7 15-15 15s-15-7-15-15v-214h-55c-2 0-3 1-3 2v230c0 47 40 65 43 66l76 30 33-67c0 0 0 0 0 0 3-6 8-10 15-12 6-2 13 0 19 4l1 1 6-9-32-194c0 0-1 0-1 0 0-7 2-14 6-19l29-32h-107z m102 49l31 184h15l31-184-39-42-38 42z m266-47c0-1-1-2-2-2h-56v214c0 8-6 15-14 15-8 0-15-7-15-15v-214h-108l30 32c4 5 6 12 5 19 0 0 0 0 0 0l-33 194 6 9 2-1c4-3 9-5 13-5 9 0 17 5 21 13v0l33 67 76-30c22-9 42-34 42-66v-230z m15 283c-6 10-14 19-24 27l17 98h14l17-98c-10-8-18-17-24-27z m102-285l0 0v214c0 8-6 15-15 15s-14-7-14-15v-214h-56c-1 0-2 1-2 2v230c0 18 5 34 17 47 8 9 18 16 25 19l76 30 33-67c0 0 0 0 0 0 3-6 9-10 15-12 7-2 13 0 19 4l2 1 6-9-33-194c0 0 0 0 0 0-1-7 1-14 5-19l30-32h-108z m102 49l31 184h15l31-184-38-42-39 42z" horiz-adv-x="1000" />

<glyph glyph-name="left" unicode="&#xe811;" d="M404 350l374 374c10 10 16 24 16 39 0 14-6 28-16 38l-33 33c-10 10-24 16-39 16s-28-6-38-16l-446-445c-10-11-16-24-16-39 0-15 6-29 16-39l445-445c11-10 24-16 39-16 15 0 28 6 39 16l32 33c22 21 22 56 0 77l-373 374z" horiz-adv-x="1000" />

<glyph glyph-name="brokerage" unicode="&#xe812;" d="M419 640c0 116-94 210-209 210s-210-94-210-210 94-209 210-209 209 94 209 209z m-387 0c0 98 80 178 178 178s177-80 177-178-79-177-177-177-178 80-178 177z m0 0m178 49c9 0 16-7 16-16h32c0 21-13 38-32 45v19h-32v-19c-19-7-33-24-33-45 0-27 22-49 49-49 9 0 16-7 16-16s-7-16-16-16-16 7-16 16h-33c0-21 14-39 33-45v-19h32v19c19 6 32 24 32 45 0 27-22 49-48 49-9 0-16 7-16 16s7 16 16 16z m0 0m0 64c62 0 113-50 113-113 0-25-9-49-24-69l25-20c20 26 31 57 31 89 0 80-65 146-145 146-33 0-63-11-89-31l20-26c20 16 44 24 69 24z m0 0m89-227l-20 25c-20-15-44-24-69-24-63 0-113 51-113 113 0 26 8 49 24 70l-26 19c-20-25-30-56-30-89 0-80 65-145 145-145 32 0 63 11 89 31z m0 0m604 34h-32v129h-32v64h-81v97h-32v-97h-81v-64h-32v-129h-32v-226h-33v97h-32v64h-48v81h-32v-81h-49v-64h-32v-97h-65v-452h-32v-32h678v32h-33z m-226 161h130v-32h-130z m-32-64h194v-97h-32v64h-33v-64h-64v64h-33v-64h-32z m226-130v-645h-48v162h-162v-162h-48v645z m-81-645h-96v129h96z m-371 581h65v-32h-65z m-32-65h129v-64h-48v32h-32v-32h-49z m-64-96h258v-420h-33v387h-32v-387h-48v387h-32v-387h-49v387h-32v-387h-32z m0 0m322 193h32v-32h-32z m0 0m81 0h32v-32h-32z m0 0m81 0h32v-32h-32z m0 0m-162-97h32v-32h-32z m0 0m81 0h32v-32h-32z m0 0m81 0h32v-32h-32z m0 0m-162-96h32v-33h-32z m0 0m81 0h32v-33h-32z m0 0m81 0h32v-33h-32z m0 0m-162-97h32v-32h-32z m0 0m81 0h32v-32h-32z m0 0m81 0h32v-32h-32z m0 0m-162-97h32v-32h-32z m0 0m81 0h32v-32h-32z m0 0m81 0h32v-32h-32z m0 0m-807 258h32v-32h-32z m0 0m0-64h32v-194h-32z m0 0m97-49h32v-32h-32z m0 0m0-64h32v-194h-32z m0 0m97 177h32v-32h-32z m0 0m0-64h32v-194h-32z m0 0m774-420h32v-32h-32z m0 0m-774 0h32v-32h-32z m0 0" horiz-adv-x="1000" />

<glyph glyph-name="bank" unicode="&#xe813;" d="M988 538l-331 213c-6 4-15 2-19-4-5-7-3-16 4-20l326-209h-76l-371 238c-13 8-29 8-42 0l-371-238h-75l467 300 66-42c7-4 16-3 20 4 4 7 2 15-4 20l-67 42c-9 6-21 6-30 0l-473-304c-10-6-14-18-11-30 4-11 14-19 26-19h71v-49-43c0-11 8-20 19-23v-25c0-13 11-23 24-23h2v-174c0-8 6-14 14-14 8 0 14 6 14 14v188c0 8-6 14-14 14h-11v20h100v-20h-11c-8 0-14-6-14-14v-314c0-8 6-14 14-14h11v-21h-100v21h11c8 0 14 6 14 14v36c0 8-6 15-14 15-8 0-14-7-14-15v-22h-2c-13 0-24-10-24-23v-25c-11-3-19-12-19-23v-29h-50c-16 0-28-13-28-28v-30c0-16 12-29 28-29h904c16 0 28 13 28 29v30c0 15-12 28-28 28h-50v29c0 11-8 20-19 23v25c0 13-11 23-24 23h-1v286h1c13 0 24 10 24 23v25c11 3 19 12 19 23v43 49h71c12 0 23 8 26 19 3 12-1 24-11 30z m-493 194c3 2 7 2 10 0l334-214h-678l334 214z m-368-243h746v-35h-152-138-166-138-152v35z m452-497v25c0 13-11 23-24 23h-2v286h2c13 0 24 10 24 23v25c10 3 18 12 18 23v29h110v-29c0-11 8-20 19-23v-25c0-13 10-23 23-23h2v-286h-2c-13 0-23-10-23-23v-25c-11-3-19-12-19-23v-29h-110v29c0 11-8 20-18 23z m-304 0v25c0 13-11 23-24 23h-2v286h2c13 0 24 10 24 23v25c10 3 18 12 18 23v29h110v-29c0-11 8-20 18-23v-25c0-13 11-23 24-23h2v-286h-2c-13 0-24-10-24-23v-25c-10-3-18-12-18-23v-29h-110v29c0 11-8 20-18 23z m264 20h11v-21h-100v21h11c8 0 14 6 14 14v314c0 8-6 14-14 14h-11v20h100v-20h-11c-8 0-14-6-14-14v-314c0-8 6-14 14-14z m-103 390h-1-4v24h138v-24h-4c0 0 0 0 0 0s0 0 0 0h-129z m-5-439c1-1 3-1 4-1h129c2 0 4 0 5 1v-23h-138v23z m-300 439h-4v24h138v-24h0-5-129z m-4-439c1-1 3-1 4-1h129c2 0 3 0 5 1v-23h-138v23z m825-51l0-30c0 0 0 0 0 0l-904 0 0 30 904 0z m-83 50c1 0 3 0 4 1v-23h-138v23c2-1 3-1 5-1h129z m-104 392h-11v20h101v-20h-12c-8 0-14-6-14-14v-314c0-8 6-14 14-14h12v-21h-101v21h11c8 0 14 6 14 14v314c0 8-6 14-14 14z m108 48l0 0h-4c0 0 0 0 0 0s0 0 0 0h-129 0-5v24h138v-24z m-367 227v44c15-1 21-8 26-8 7 0 10 9 10 13 0 10-21 15-36 15v6c0 3-3 5-6 5-4 0-7-2-7-5v-6c-21-2-41-13-41-41 0-28 22-35 41-42v-52c-22 2-28 17-35 17-6 0-10-7-10-12 0-11 18-26 45-26h0v-7c0-2 3-5 7-5 3 0 6 3 6 5v8c24 3 40 18 40 45 0 29-21 39-40 46z m-12 4c-11 5-20 9-20 22 0 11 8 16 20 18v-40z m11-74v46c10-5 19-11 19-25 0-12-7-19-19-21z" horiz-adv-x="1000" />

<glyph glyph-name="dealer" unicode="&#xe814;" d="M36 814c-4-4-5-6-5-34l0-31 16-23 16-23 0-407 0-406 4-5 5-4 428 0 429 0 4 5 5 4 0 406 0 407 15 23 16 23 0 31c0 29 0 30-5 35l-4 4-460 0-460 0-4-5m73-42l0-16 16 0 16 0 0 16 0 16 23 0 24 0 0-16 0-16 15 0 16 0 0 16 0 16 172 0 172 0 0-16 0-16 15 0 16 0 0 16 0 16 78 0 78 0 0-16 0-16 16 0 15 0 0 16 0 16 78 0 79 0 0-12c0-12-1-13-13-32l-12-19-413 0-413 0-12 19c-12 19-12 20-12 32l0 12 23 0 23 0 0-16m797-469l0-391-101 0-102 0 0 16 0 16 86 0 86 0 0 172 0 172-375 0-375 0 0-172 0-172 86 0 86 0 0-16 0-16-102 0-101 0 0 391 0 391 406 0 406 0 0-391m-781 188l0-172 375 0 375 0 0 172 0 172-375 0-375 0 0-172m560 99l-41-41 12-12 12-12 53 53 53 53 23 0 23 0-34-33-33-33 12-12 12-13 34 34 33 33 0-128 0-129-126 0c-120 0-125 0-119 3 8 5 17 13 22 21l3 5 45 0c25 0 47 1 49 2 5 2 4 107-1 109-4 1-39 7-76 12l-24 4-18 14c-10 8-24 19-31 25l-12 10-84 0-84 0-39-39-38-38 0-49 1-49 32 0 33-1 3-5c3-7 14-17 21-21 6-3-3-3-107-3l-114 0 34 33 33 33-12 13-12 12-34-33-33-34 0 23 0 23 54 53 53 53-12 12-13 12-41-41-41-41 0 82 0 81 285 0 285 0-41-41m-111-93l28-23 16-2c19-3 64-11 66-11 1 0 2-10 2-23l0-23-47-1-46 0-1-9c-1-19-7-25-20-20-6 3-7 6-8 20l0 9-64 0-63 0-1-9c-1-14-2-17-8-20-12-5-20 2-20 17 0 13 1 13-32 13l-30 0 0 24 0 25 27 28 28 28 72 0 72 0 29-23m-39-122c2-6 14-18 22-22 6-3 4-3-57-3-61 0-63 0-57 3 8 4 20 16 22 22 2 4 2 4 35 4 33 0 33 0 35-4m309-259l0-141-71 0-70 0 0 78 0 78 24 0 23 0 0 47 0 47-250 0-250 0 0-47 0-47 23 0 24 0 0-78 0-78-70 0-71 0 0 141 0 140 344 0 344 0 0-140m-125 62l0-15-219 0-219 0 0 15 0 16 219 0 219 0 0-16m-47-62l0-16-172 0-172 0 0 16 0 15 172 0 172 0 0-15m-188-125l0-79-78 0-78 0 0 79 0 78 78 0 78 0 0-78m188 0l0-79-78 0-78 0 0 79 0 78 78 0 78 0 0-78m-250 0l0-16 16 0 15 0 0 16 0 15-15 0-16 0 0-15m125 0l0-16 16 0 15 0 0 16 0 15-15 0-16 0 0-15" horiz-adv-x="1000" />

<glyph glyph-name="sale" unicode="&#xe815;" d="M277 714l-43-43 0-20 0-20-27 0c-39 0-35 12-35-102l0-94-47-74c-26-41-51-80-55-86l-7-12 0-81 0-82-12 0c-19 0-20-1-20-47 0-52-8-47 71-47l62 0 5-10c45-90 179-90 224 0l6 10 117 0 117 0 5-10c45-90 179-90 224 0l5 10 47 0c60 0 55-4 55 47 0 46-1 47-20 47l-11 0 0 90 0 89-5 5c-4 3-114 19-141 19-2 0-30 25-63 54-33 30-68 62-78 71l-18 16-215 0-215 0 0 78 0 78 16 0 15 0 0-20 0-20 43-42 42-43 321 0 321 0 4 4c6 7 6 266 0 273l-4 4-321 0-321 0-42-42m661-98l0-110-301 0-300 0-36 36-35 36 0 11 0 11 16 0 17 0 3-7c20-43 89-26 89 22 0 49-67 66-88 24l-4-8-17 0-16 0 0 12 0 11 35 36 36 35 300 0 301 0 0-109m-512 74c-4-4-4-7-4-43 0-50-2-47 35-47l27 0 0-16 0-15-31 0-31 0 0-16 0-15 43 0c55 0 51-5 51 46 0 50 2 47-36 47l-27 0 0 16 0 16 31 0 32 0 0 15 0 16-43 0c-42 0-43 0-47-4m141 0c-2-2-8-15-13-29l-8-25-1-49 0-49 16 0 17 0 0 23 0 23 24 0 23 0 0-23 0-23 16 0 15 0 0 50 0 50-8 24c-11 33-8 32-46 32-28 0-32-1-35-4m121-70c0-93-7-82 50-82l43 0 0 15 0 16-31 0-31 0 0 62 0 63-16 0-15 0 0-74m113 70c-4-5-4-7-4-74 0-89-8-78 59-78l50 0 0 15 0 16-39 0-39 0 0 15 0 16 31 0 32 0 0 16 0 15-32 0-31 0 0 16 0 16 39 0 39 0 0 15 0 16-50 0c-50 0-51 0-55-4m-182-46c3-10 6-20 6-23l0-5-23 0-24 0 0 5c0 3 3 13 7 23l6 19 11 0 10 0 7-19m-265-19c2-2 3-6 3-9 0-4-1-8-3-10-9-9-24-2-24 10 0 7 6 13 14 13 3 0 7-1 10-4m340-281c81-74 80-73 103-75l16-1 0-33c0-44-4-41 51-41l42 0 0-47 0-47-19 0-20 0-4 9c-47 92-179 92-225 0l-5-9-117 0-117 0-5 9c-47 92-179 92-225 0-3-6-6-9-9-9-4 0-4 1-4 45 0 66-9 80-50 80l-12 0 0 13 0 12 52 81 52 82 210 0 209 0 77-69m-479 34c-4-4-55-92-59-101-2-6 0-12 5-17 3-3 13-4 105-4l101 0 4 5c6 6 6 109 0 116-6 6-149 7-156 1m195-1c-6-7-6-110 1-116l4-5 140 0c151 0 143 0 148 10 5 9 0 15-51 66l-50 49-94 0-94 0-4-4m-66-58l0-31-71 0c-40 0-72 0-72 0 0 1 5 10 25 44l11 18 53 0 54 0 0-31m272 0l31-31-104 0-105 0 0 31 0 31 73 0 74 0 31-31m262-59c31-3 28-1 28-19l0-16-31 0-31 0 0 20 0 19 7-1c4 0 16-2 27-3m-503-66l0-16 31 0 32 0 0 16 0 15-32 0-31 0 0-15m94 0l0-16 31 0 31 0 0 16 0 15-31 0-31 0 0-15m-355-3c7-3 11-11 11-22l0-6-16 0-15 0 0 15 0 16 7 0c3 0 10-1 13-3m184-47c62-8 96-88 61-141-60-88-197-24-166 78 12 38 57 70 91 65 2-1 8-1 14-2m468 0c63-8 97-88 62-141-60-88-198-24-166 78 12 38 56 70 91 65 2-1 8-1 13-2m-641-28l0-16-16 0-15 0 0 16 0 15 15 0 16 0 0-15m130-6c-40-19-49-71-18-102 23-23 66-23 88 0 40 40 13 108-44 108-12 0-16-1-26-6m469 0c-40-19-49-71-18-102 23-23 66-23 88 0 40 40 12 108-44 108-12 0-17-1-26-6m-428-31c32-20 4-71-29-52-26 16-16 55 14 55 6 0 12-1 15-3m469 0c32-20 3-71-29-52-26 16-16 55 14 55 5 0 11-1 15-3m-609-26l0-15-47 0-46 0 0 15 0 16 46 0 47 0 0-16m469 0l0-15-109 0-110 0 0 15 0 16 110 0 109 0 0-16m313 0l0-15-32 0-31 0 0 15 0 16 31 0 32 0 0-16" horiz-adv-x="1000" />

<glyph glyph-name="right" unicode="&#xe816;" d="M778 389l-445 445c-10 10-24 16-39 16s-28-6-39-16l-32-33c-22-21-22-56 0-77l373-374-374-374c-10-10-16-24-16-39 0-14 6-28 16-38l33-33c10-10 24-16 39-16s28 6 38 16l446 445c10 11 16 25 16 39 0 15-6 29-16 39z" horiz-adv-x="1000" />

<glyph glyph-name="next" unicode="&#xe817;" d="M984 389l-361 361c-10 10-24 16-39 16-14 0-28-6-38-16l-33-33c-11-10-16-24-16-38 0-15 5-29 16-40l210-211h-669c-30 0-54-23-54-54v-46c0-30 24-56 54-56h672l-213-212c-11-11-16-24-16-39 0-14 5-28 16-38l33-33c10-10 24-16 38-16 15 0 29 6 39 16l361 361c10 11 16 24 16 39 0 15-6 29-16 39z" horiz-adv-x="1000" />
</font>
</defs>
</svg>
